<svg width="55" height="55" viewBox="0 0 55 55" fill="none" xmlns="http://www.w3.org/2000/svg">
    <circle cx="27.5" cy="27.5" r="27.5" fill="#1A49BB"/>
    <path d="M23.8333 17H21.3333C20.4493 17 19.6014 17.3512 18.9763 17.9763C18.3512 18.6014 18 19.4493 18 20.3333V22.8333C18 23.7174 18.3512 24.5652 18.9763 25.1904C19.6014 25.8155 20.4493 26.1667 21.3333 26.1667H23.8333C24.7174 26.1667 25.5652 25.8155 26.1904 25.1904C26.8155 24.5652 27.1667 23.7174 27.1667 22.8333V20.3333C27.1667 19.4493 26.8155 18.6014 26.1904 17.9763C25.5652 17.3512 24.7174 17 23.8333 17V17ZM25.5 22.8333C25.5 23.2754 25.3244 23.6993 25.0118 24.0118C24.6993 24.3244 24.2754 24.5 23.8333 24.5H21.3333C20.8913 24.5 20.4674 24.3244 20.1548 24.0118C19.8423 23.6993 19.6667 23.2754 19.6667 22.8333V20.3333C19.6667 19.8913 19.8423 19.4674 20.1548 19.1548C20.4674 18.8423 20.8913 18.6667 21.3333 18.6667H23.8333C24.2754 18.6667 24.6993 18.8423 25.0118 19.1548C25.3244 19.4674 25.5 19.8913 25.5 20.3333V22.8333Z" fill="white"/>
    <path d="M34.6666 17H32.1666C31.2826 17 30.4347 17.3512 29.8096 17.9763C29.1845 18.6014 28.8333 19.4493 28.8333 20.3333V22.8333C28.8333 23.7174 29.1845 24.5652 29.8096 25.1904C30.4347 25.8155 31.2826 26.1667 32.1666 26.1667H34.6666C35.5507 26.1667 36.3985 25.8155 37.0237 25.1904C37.6488 24.5652 38 23.7174 38 22.8333V20.3333C38 19.4493 37.6488 18.6014 37.0237 17.9763C36.3985 17.3512 35.5507 17 34.6666 17V17ZM36.3333 22.8333C36.3333 23.2754 36.1577 23.6993 35.8452 24.0118C35.5326 24.3244 35.1087 24.5 34.6666 24.5H32.1666C31.7246 24.5 31.3007 24.3244 30.9881 24.0118C30.6756 23.6993 30.5 23.2754 30.5 22.8333V20.3333C30.5 19.8913 30.6756 19.4674 30.9881 19.1548C31.3007 18.8423 31.7246 18.6667 32.1666 18.6667H34.6666C35.1087 18.6667 35.5326 18.8423 35.8452 19.1548C36.1577 19.4674 36.3333 19.8913 36.3333 20.3333V22.8333Z" fill="white"/>
    <path d="M23.8333 27.8333H21.3333C20.4493 27.8333 19.6014 28.1845 18.9763 28.8096C18.3512 29.4348 18 30.2826 18 31.1667V33.6667C18 34.5507 18.3512 35.3986 18.9763 36.0237C19.6014 36.6488 20.4493 37 21.3333 37H23.8333C24.7174 37 25.5652 36.6488 26.1904 36.0237C26.8155 35.3986 27.1667 34.5507 27.1667 33.6667V31.1667C27.1667 30.2826 26.8155 29.4348 26.1904 28.8096C25.5652 28.1845 24.7174 27.8333 23.8333 27.8333ZM25.5 33.6667C25.5 34.1087 25.3244 34.5326 25.0118 34.8452C24.6993 35.1577 24.2754 35.3333 23.8333 35.3333H21.3333C20.8913 35.3333 20.4674 35.1577 20.1548 34.8452C19.8423 34.5326 19.6667 34.1087 19.6667 33.6667V31.1667C19.6667 30.7246 19.8423 30.3007 20.1548 29.9882C20.4674 29.6756 20.8913 29.5 21.3333 29.5H23.8333C24.2754 29.5 24.6993 29.6756 25.0118 29.9882C25.3244 30.3007 25.5 30.7246 25.5 31.1667V33.6667Z" fill="white"/>
    <path d="M34.6666 27.8333H32.1666C31.2826 27.8333 30.4347 28.1845 29.8096 28.8096C29.1845 29.4348 28.8333 30.2826 28.8333 31.1667V33.6667C28.8333 34.5507 29.1845 35.3986 29.8096 36.0237C30.4347 36.6488 31.2826 37 32.1666 37H34.6666C35.5507 37 36.3985 36.6488 37.0237 36.0237C37.6488 35.3986 38 34.5507 38 33.6667V31.1667C38 30.2826 37.6488 29.4348 37.0237 28.8096C36.3985 28.1845 35.5507 27.8333 34.6666 27.8333ZM36.3333 33.6667C36.3333 34.1087 36.1577 34.5326 35.8452 34.8452C35.5326 35.1577 35.1087 35.3333 34.6666 35.3333H32.1666C31.7246 35.3333 31.3007 35.1577 30.9881 34.8452C30.6756 34.5326 30.5 34.1087 30.5 33.6667V31.1667C30.5 30.7246 30.6756 30.3007 30.9881 29.9882C31.3007 29.6756 31.7246 29.5 32.1666 29.5H34.6666C35.1087 29.5 35.5326 29.6756 35.8452 29.9882C36.1577 30.3007 36.3333 30.7246 36.3333 31.1667V33.6667Z" fill="white"/>
</svg>
