


<svg width="52" height="48" viewBox="0 0 52 48" fill="none" xmlns="http://www.w3.org/2000/svg">
    <path d="M38.0797 18.3466H34.1226C33.1633 18.3067 31.2927 18.9462 31.4845 21.8241V28.779" stroke="#1066AE" stroke-width="1.5"/>
    <path d="M25.6089 28.8989V7.31467" stroke="#1066AE" stroke-width="1.5"/>
    <path d="M19.2535 28.779V14.5094C19.2935 13.8299 18.8698 12.2791 16.8553 11.5116H12.6583" stroke="#1066AE" stroke-width="1.5"/>
    <path d="M8.70116 28.779C5.66337 29.5785 -0.124413 32.7601 1.02675 39.0915C1.10669 41.5298 3.18517 46.4781 10.8596 46.7659" stroke="#1066AE" stroke-width="1.5"/>
    <path d="M8.34143 28.779H42.8763C45.8741 29.5785 51.6539 32.8081 50.7905 39.3314C50.5507 41.4898 48.8959 45.9266 44.1953 46.4062H19.4933" stroke="#1066AE" stroke-width="1.5"/>
    <path d="M13.9773 46.5261H15.776" stroke="#1066AE" stroke-width="1.5"/>
    <path d="M28.8464 34.8946V41.1301" stroke="#1066AE" stroke-width="1.5"/>
    <path d="M32.9235 34.8946V41.1301" stroke="#1066AE" stroke-width="1.5"/>
    <path d="M36.7607 34.8946V41.1301" stroke="#1066AE" stroke-width="1.5"/>
    <path d="M42.0369 34.8946V41.1301" stroke="#1066AE" stroke-width="1.5"/>
    <path d="M45.1547 34.8946V41.1301" stroke="#1066AE" stroke-width="1.5"/>
    <circle cx="8.3414" cy="37.8924" r="2.84738" stroke="#1066AE" stroke-width="1.5"/>
    <circle cx="20.3327" cy="37.8924" r="2.84738" stroke="#1066AE" stroke-width="1.5"/>
    <circle cx="9.30075" cy="11.2718" r="2.84738" stroke="#1066AE" stroke-width="1.5"/>
    <circle cx="25.6089" cy="3.59738" r="2.84738" stroke="#1066AE" stroke-width="1.5"/>
    <circle cx="41.6771" cy="17.9869" r="2.84738" stroke="#1066AE" stroke-width="1.5"/>
</svg>
