<svg width="18" height="19" viewBox="0 0 18 19" fill="none" xmlns="http://www.w3.org/2000/svg">
    <path d="M3.54224 7.72892V5.1918C3.65255 4.71379 4.11585 3.73571 5.08657 3.64746H12.5876C13.2127 3.721 14.507 4.19901 14.6835 5.52273V7.72892" stroke="#616161" stroke-width="2"/>
    <path d="M3.54224 10.7074V13.2445C3.65255 13.7225 4.11585 14.7006 5.08657 14.7888H12.5876C13.2127 14.7153 14.507 14.2373 14.6835 12.9136V10.7074" stroke="#616161" stroke-width="2"/>
    <path d="M3.54224 7.72892V5.1918C3.65255 4.71379 4.11585 3.73571 5.08657 3.64746H12.5876C13.2127 3.721 14.507 4.19901 14.6835 5.52273V7.72892" stroke="#616161" stroke-width="2"/>
    <path d="M1.7771 8.50098H16.2277" stroke="#616161" stroke-width="2"/>
    <path d="M3.98345 1H2.54943C1.99788 1.11031 0.916843 1.61773 1.00509 2.76496V4.19898" stroke="#616161" stroke-width="2"/>
    <path d="M14.0165 1H15.4506C16.0021 1.11031 17.0832 1.61773 16.9949 2.76496V4.19898" stroke="#616161" stroke-width="2"/>
    <path d="M3.98345 17.436H2.54943C1.99788 17.3257 0.916843 16.8183 1.00509 15.6711V14.2371" stroke="#616161" stroke-width="2"/>
    <path d="M14.0165 17.436H15.4506C16.0021 17.3257 17.0832 16.8183 16.9949 15.6711V14.2371" stroke="#616161" stroke-width="2"/>
</svg>
