<svg width="88" height="88" viewBox="0 0 88 88" fill="none" xmlns="http://www.w3.org/2000/svg">
    <rect x="17" y="17" width="55" height="55" rx="16" fill="#DBDAF7" />
    <path fill-rule="evenodd" clip-rule="evenodd"
        d="M29.0012 41.4168H31.5832V36.202C31.5865 34.8235 31.9972 33.6273 33.091 32.5276C33.091 32.5276 35.3577 31.0035 36.7188 31H52.1571C54.9985 31 57.3078 33.3395 57.3078 36.202V41.4186H59.8772V44.0196H29L29.0012 41.4168ZM34.1519 41.4168H54.7415V36.202C54.739 35.5106 54.4657 34.8484 53.9816 34.3607C53.4976 33.8731 52.8423 33.5999 52.1595 33.601H36.7188C36.0383 33.6028 35.3861 33.8774 34.9048 34.3648C34.4236 34.8522 34.1524 35.5127 34.1507 36.202L34.1519 41.4168ZM57.309 46.634V51.8354C57.3079 53.2187 56.7649 54.5449 55.7993 55.5231C54.8336 56.5012 53.5241 57.0513 52.1583 57.0526H36.7188C33.8925 57.0526 31.5832 54.7131 31.5832 51.8354V46.6358H34.1507V51.8372C34.1496 52.5287 34.4194 53.1924 34.9008 53.6826C35.3823 54.1729 36.0361 54.4497 36.7188 54.4522H52.1571C52.8419 54.4522 53.4987 54.1767 53.9829 53.6863C54.4671 53.1959 54.7391 52.5308 54.7391 51.8372V46.6358L57.309 46.634Z"
        fill="#5A6CF3" />
</svg>
