<svg width="55" height="55" viewBox="0 0 55 55" fill="none" xmlns="http://www.w3.org/2000/svg">
    <circle cx="27.5" cy="27.5" r="27.5" fill="#1A49BB"/>
    <path d="M19.1333 25.5581V21.6819C19.3018 20.9516 20.0097 19.4573 21.4927 19.3225H32.9527C33.9077 19.4349 35.8851 20.1652 36.1547 22.1875V25.5581" stroke="white" stroke-width="2"/>
    <path d="M19.1333 30.1084V33.9846C19.3018 34.7149 20.0097 36.2092 21.4927 36.344H32.9527C33.9077 36.2316 35.8851 35.5014 36.1547 33.479V30.1084" stroke="white" stroke-width="2"/>
    <path d="M19.1333 25.5581V21.6819C19.3018 20.9516 20.0097 19.4573 21.4927 19.3225H32.9527C33.9077 19.4349 35.8851 20.1652 36.1547 22.1875V25.5581" stroke="white" stroke-width="2"/>
    <path d="M16.437 26.7378H38.5143" stroke="white" stroke-width="2"/>
    <path d="M19.8076 15.2778H17.6167C16.774 15.4464 15.1225 16.2216 15.2573 17.9743V20.1652" stroke="white" stroke-width="2"/>
    <path d="M35.1358 15.2778H37.3267C38.1693 15.4464 39.8209 16.2216 39.6861 17.9743V20.1652" stroke="white" stroke-width="2"/>
    <path d="M19.8076 40.3887H17.6167C16.774 40.2201 15.1225 39.4449 15.2573 37.6922V35.5013" stroke="white" stroke-width="2"/>
    <path d="M35.1358 40.3887H37.3267C38.1693 40.2201 39.8209 39.4449 39.6861 37.6922V35.5013" stroke="white" stroke-width="2"/>
</svg>
