<svg width="13" height="16" viewBox="0 0 13 16" fill="none" xmlns="http://www.w3.org/2000/svg">
    <path
        d="M0.75 7.75C0.75 7.94891 0.829018 8.13968 0.96967 8.28033C1.11032 8.42098 1.30109 8.5 1.5 8.5H7.1925L5.4675 10.2175C5.3972 10.2872 5.34141 10.3702 5.30333 10.4616C5.26525 10.553 5.24565 10.651 5.24565 10.75C5.24565 10.849 5.26525 10.947 5.30333 11.0384C5.34141 11.1298 5.3972 11.2128 5.4675 11.2825C5.53722 11.3528 5.62017 11.4086 5.71157 11.4467C5.80296 11.4847 5.90099 11.5043 6 11.5043C6.09901 11.5043 6.19704 11.4847 6.28843 11.4467C6.37983 11.4086 6.46278 11.3528 6.5325 11.2825L9.5325 8.2825C9.60078 8.21117 9.6543 8.12706 9.69 8.035C9.76501 7.8524 9.76501 7.6476 9.69 7.465C9.6543 7.37294 9.60078 7.28883 9.5325 7.2175L6.5325 4.2175C6.46257 4.14757 6.37955 4.0921 6.28819 4.05426C6.19682 4.01641 6.09889 3.99693 6 3.99693C5.90111 3.99693 5.80318 4.01641 5.71181 4.05426C5.62045 4.0921 5.53743 4.14757 5.4675 4.2175C5.39757 4.28743 5.3421 4.37045 5.30426 4.46181C5.26641 4.55318 5.24693 4.65111 5.24693 4.75C5.24693 4.84889 5.26641 4.94682 5.30426 5.03819C5.3421 5.12955 5.39757 5.21257 5.4675 5.2825L7.1925 7H1.5C1.30109 7 1.11032 7.07902 0.96967 7.21967C0.829018 7.36032 0.75 7.55109 0.75 7.75ZM10.5 0.25H3C2.40326 0.25 1.83097 0.487053 1.40901 0.90901C0.987053 1.33097 0.75 1.90326 0.75 2.5V4.75C0.75 4.94891 0.829018 5.13968 0.96967 5.28033C1.11032 5.42098 1.30109 5.5 1.5 5.5C1.69891 5.5 1.88968 5.42098 2.03033 5.28033C2.17098 5.13968 2.25 4.94891 2.25 4.75V2.5C2.25 2.30109 2.32902 2.11032 2.46967 1.96967C2.61032 1.82902 2.80109 1.75 3 1.75H10.5C10.6989 1.75 10.8897 1.82902 11.0303 1.96967C11.171 2.11032 11.25 2.30109 11.25 2.5V13C11.25 13.1989 11.171 13.3897 11.0303 13.5303C10.8897 13.671 10.6989 13.75 10.5 13.75H3C2.80109 13.75 2.61032 13.671 2.46967 13.5303C2.32902 13.3897 2.25 13.1989 2.25 13V10.75C2.25 10.5511 2.17098 10.3603 2.03033 10.2197C1.88968 10.079 1.69891 10 1.5 10C1.30109 10 1.11032 10.079 0.96967 10.2197C0.829018 10.3603 0.75 10.5511 0.75 10.75V13C0.75 13.5967 0.987053 14.169 1.40901 14.591C1.83097 15.0129 2.40326 15.25 3 15.25H10.5C11.0967 15.25 11.669 15.0129 12.091 14.591C12.5129 14.169 12.75 13.5967 12.75 13V2.5C12.75 1.90326 12.5129 1.33097 12.091 0.90901C11.669 0.487053 11.0967 0.25 10.5 0.25Z"
        fill="#2C73EB" />
</svg>
